<svg xmlns="http://www.w3.org/2000/svg" viewBox="0 0 452 416" width="452" height="416">
  <path d="M 68 0 L 67 1 L 65 1 L 64 2 L 63 2 L 62 3 L 60 3 L 59 4 L 58 4 L 57 5 L 56 5 L 55 6 L 54 6 L 53 7 L 52 7 L 51 8 L 50 8 L 49 9 L 48 9 L 46 11 L 45 11 L 43 13 L 42 13 L 40 15 L 39 15 L 36 18 L 35 18 L 30 23 L 29 23 L 24 28 L 24 29 L 18 35 L 18 36 L 15 39 L 15 40 L 13 42 L 13 43 L 11 45 L 11 46 L 10 47 L 10 48 L 8 50 L 8 51 L 7 52 L 7 53 L 6 54 L 6 55 L 5 56 L 5 57 L 4 58 L 4 60 L 3 61 L 3 62 L 2 63 L 2 65 L 1 66 L 1 67 L 0 68 L 0 347 L 1 348 L 1 349 L 2 350 L 2 352 L 3 353 L 3 355 L 4 356 L 4 357 L 5 358 L 5 359 L 6 360 L 6 361 L 7 362 L 7 363 L 8 364 L 8 365 L 9 366 L 9 367 L 11 369 L 11 370 L 13 372 L 13 373 L 15 375 L 15 376 L 18 379 L 18 380 L 24 386 L 24 387 L 28 391 L 29 391 L 35 397 L 36 397 L 39 400 L 40 400 L 42 402 L 43 402 L 45 404 L 46 404 L 48 406 L 49 406 L 50 407 L 51 407 L 52 408 L 53 408 L 54 409 L 55 409 L 56 410 L 57 410 L 58 411 L 59 411 L 60 412 L 62 412 L 63 413 L 65 413 L 66 414 L 67 414 L 68 415 L 383 415 L 384 414 L 386 414 L 387 413 L 388 413 L 389 412 L 391 412 L 392 411 L 393 411 L 394 410 L 395 410 L 396 409 L 397 409 L 398 408 L 399 408 L 400 407 L 401 407 L 402 406 L 403 406 L 405 404 L 406 404 L 408 402 L 409 402 L 411 400 L 412 400 L 415 397 L 416 397 L 421 392 L 422 392 L 427 387 L 427 386 L 433 380 L 433 379 L 436 376 L 436 375 L 438 373 L 438 372 L 440 370 L 440 369 L 441 368 L 441 367 L 443 365 L 443 364 L 444 363 L 444 362 L 445 361 L 445 360 L 446 359 L 446 358 L 447 357 L 447 355 L 448 354 L 448 353 L 449 352 L 449 350 L 450 349 L 450 348 L 451 347 L 451 68 L 450 67 L 450 66 L 449 65 L 449 63 L 448 62 L 448 60 L 447 59 L 447 58 L 446 57 L 446 56 L 445 55 L 445 54 L 444 53 L 444 52 L 443 51 L 443 50 L 442 49 L 442 48 L 440 46 L 440 45 L 438 43 L 438 42 L 436 40 L 436 39 L 433 36 L 433 35 L 427 29 L 427 28 L 423 24 L 422 24 L 416 18 L 415 18 L 412 15 L 411 15 L 409 13 L 408 13 L 406 11 L 405 11 L 403 9 L 402 9 L 401 8 L 400 8 L 399 7 L 398 7 L 397 6 L 396 6 L 395 5 L 394 5 L 393 4 L 392 4 L 391 3 L 389 3 L 388 2 L 386 2 L 385 1 L 384 1 L 383 0 Z M 91 12 L 92 11 L 359 11 L 360 12 L 365 12 L 366 13 L 370 13 L 371 14 L 374 14 L 375 15 L 377 15 L 378 16 L 380 16 L 381 17 L 382 17 L 383 18 L 385 18 L 386 19 L 387 19 L 388 20 L 389 20 L 390 21 L 391 21 L 392 22 L 393 22 L 394 23 L 395 23 L 397 25 L 398 25 L 400 27 L 401 27 L 404 30 L 405 30 L 421 46 L 421 47 L 424 50 L 424 51 L 426 53 L 426 54 L 427 55 L 427 56 L 429 58 L 429 59 L 430 60 L 430 61 L 431 62 L 431 63 L 432 64 L 432 65 L 433 66 L 433 68 L 434 69 L 434 70 L 435 71 L 435 73 L 436 74 L 436 76 L 437 77 L 437 80 L 438 81 L 438 85 L 439 86 L 439 91 L 440 92 L 440 323 L 439 324 L 439 329 L 438 330 L 438 334 L 437 335 L 437 338 L 436 339 L 436 341 L 435 342 L 435 344 L 434 345 L 434 346 L 433 347 L 433 349 L 432 350 L 432 351 L 431 352 L 431 353 L 430 354 L 430 355 L 429 356 L 429 357 L 427 359 L 427 360 L 426 361 L 426 362 L 424 364 L 424 365 L 421 368 L 421 369 L 405 385 L 404 385 L 401 388 L 400 388 L 398 390 L 397 390 L 396 391 L 395 391 L 393 393 L 392 393 L 391 394 L 390 394 L 389 395 L 388 395 L 387 396 L 386 396 L 385 397 L 383 397 L 382 398 L 381 398 L 380 399 L 378 399 L 377 400 L 375 400 L 374 401 L 371 401 L 370 402 L 366 402 L 365 403 L 360 403 L 359 404 L 92 404 L 91 403 L 86 403 L 85 402 L 81 402 L 80 401 L 77 401 L 76 400 L 74 400 L 73 399 L 71 399 L 70 398 L 69 398 L 68 397 L 66 397 L 65 396 L 64 396 L 63 395 L 62 395 L 61 394 L 60 394 L 59 393 L 58 393 L 57 392 L 56 392 L 54 390 L 53 390 L 51 388 L 50 388 L 47 385 L 46 385 L 30 369 L 30 368 L 27 365 L 27 364 L 25 362 L 25 361 L 24 360 L 24 359 L 22 357 L 22 356 L 21 355 L 21 354 L 20 353 L 20 352 L 19 351 L 19 350 L 18 349 L 18 347 L 17 346 L 17 345 L 16 344 L 16 342 L 15 341 L 15 339 L 14 338 L 14 335 L 13 334 L 13 330 L 12 329 L 12 324 L 11 323 L 11 92 L 12 91 L 12 86 L 13 85 L 13 81 L 14 80 L 14 77 L 15 76 L 15 74 L 16 73 L 16 71 L 17 70 L 17 69 L 18 68 L 18 66 L 19 65 L 19 64 L 20 63 L 20 62 L 21 61 L 21 60 L 22 59 L 22 58 L 24 56 L 24 55 L 25 54 L 25 53 L 27 51 L 27 50 L 30 47 L 30 46 L 46 30 L 47 30 L 50 27 L 51 27 L 53 25 L 54 25 L 55 24 L 56 24 L 58 22 L 59 22 L 60 21 L 61 21 L 62 20 L 63 20 L 64 19 L 65 19 L 66 18 L 68 18 L 69 17 L 70 17 L 71 16 L 73 16 L 74 15 L 76 15 L 77 14 L 80 14 L 81 13 L 85 13 L 86 12 Z" fill="#FFFFFF" fill-rule="evenodd"/>
  <path d="M 276 249 L 275 250 L 274 250 L 268 256 L 267 256 L 264 259 L 263 259 L 262 260 L 261 260 L 260 261 L 259 261 L 258 262 L 257 262 L 256 263 L 254 263 L 253 264 L 251 264 L 250 265 L 248 265 L 247 266 L 247 267 L 246 268 L 246 297 L 247 298 L 247 344 L 254 344 L 255 343 L 259 343 L 260 342 L 264 342 L 265 341 L 267 341 L 268 340 L 271 340 L 272 339 L 274 339 L 275 338 L 276 338 L 277 337 L 279 337 L 280 336 L 281 336 L 282 335 L 284 335 L 285 334 L 286 334 L 287 333 L 288 333 L 289 332 L 290 332 L 292 330 L 293 330 L 294 329 L 295 329 L 297 327 L 298 327 L 299 326 L 300 326 L 302 324 L 303 324 L 306 321 L 307 321 L 312 316 L 313 316 L 321 308 L 321 307 L 326 302 L 326 301 L 328 299 L 328 298 L 330 296 L 330 295 L 331 294 L 331 291 L 330 290 L 330 289 L 328 287 L 327 287 L 319 279 L 318 279 L 313 274 L 312 274 L 307 269 L 306 269 L 303 266 L 302 266 L 298 262 L 297 262 L 294 259 L 293 259 L 290 256 L 289 256 L 286 253 L 285 253 L 282 250 L 281 250 L 280 249 Z M 113 237 L 112 238 L 111 238 L 111 242 L 112 243 L 112 246 L 113 247 L 113 249 L 114 250 L 114 253 L 115 254 L 115 257 L 116 258 L 116 260 L 117 261 L 117 263 L 118 264 L 118 265 L 119 266 L 119 267 L 120 268 L 120 270 L 121 271 L 121 272 L 122 273 L 122 274 L 123 275 L 123 276 L 124 277 L 124 278 L 125 279 L 125 280 L 127 282 L 127 283 L 128 284 L 128 285 L 130 287 L 130 288 L 132 290 L 132 291 L 134 293 L 134 294 L 138 298 L 138 299 L 154 315 L 155 315 L 158 318 L 159 318 L 162 321 L 163 321 L 165 323 L 166 323 L 168 325 L 169 325 L 170 326 L 171 326 L 173 328 L 174 328 L 175 329 L 176 329 L 177 330 L 178 330 L 179 331 L 180 331 L 181 332 L 182 332 L 183 333 L 184 333 L 185 334 L 186 334 L 187 335 L 189 335 L 190 336 L 191 336 L 192 337 L 194 337 L 195 338 L 197 338 L 198 339 L 200 339 L 201 340 L 203 340 L 204 341 L 207 341 L 208 342 L 212 342 L 213 343 L 218 343 L 219 344 L 232 344 L 232 266 L 231 265 L 230 265 L 229 264 L 226 264 L 225 263 L 223 263 L 222 262 L 220 262 L 219 261 L 218 261 L 216 259 L 215 259 L 214 258 L 213 258 L 203 248 L 203 247 L 202 246 L 202 245 L 200 243 L 200 242 L 199 241 L 199 240 L 198 239 L 198 238 L 197 237 Z M 107 208 L 107 222 L 108 223 L 193 223 L 194 222 L 194 209 L 193 208 Z M 248 88 L 247 89 L 247 128 L 246 129 L 246 164 L 248 166 L 250 166 L 251 167 L 254 167 L 255 168 L 256 168 L 257 169 L 259 169 L 260 170 L 261 170 L 263 172 L 264 172 L 266 174 L 267 174 L 274 181 L 275 181 L 276 182 L 279 182 L 280 181 L 281 181 L 282 180 L 283 180 L 285 178 L 286 178 L 288 176 L 289 176 L 293 172 L 294 172 L 297 169 L 298 169 L 302 165 L 303 165 L 307 161 L 308 161 L 312 157 L 313 157 L 318 152 L 319 152 L 331 140 L 331 137 L 330 136 L 330 135 L 329 134 L 329 133 L 326 130 L 326 129 L 318 121 L 318 120 L 317 120 L 309 112 L 308 112 L 305 109 L 304 109 L 301 106 L 300 106 L 299 105 L 298 105 L 296 103 L 295 103 L 294 102 L 293 102 L 291 100 L 290 100 L 289 99 L 288 99 L 287 98 L 285 98 L 284 97 L 283 97 L 282 96 L 281 96 L 280 95 L 278 95 L 277 94 L 275 94 L 274 93 L 272 93 L 271 92 L 269 92 L 268 91 L 265 91 L 264 90 L 261 90 L 260 89 L 256 89 L 255 88 Z M 226 87 L 225 88 L 217 88 L 216 89 L 212 89 L 211 90 L 207 90 L 206 91 L 204 91 L 203 92 L 200 92 L 199 93 L 197 93 L 196 94 L 194 94 L 193 95 L 191 95 L 190 96 L 188 96 L 187 97 L 186 97 L 185 98 L 184 98 L 183 99 L 182 99 L 181 100 L 179 100 L 178 101 L 177 101 L 175 103 L 174 103 L 173 104 L 172 104 L 171 105 L 170 105 L 168 107 L 167 107 L 165 109 L 164 109 L 162 111 L 161 111 L 158 114 L 157 114 L 152 119 L 151 119 L 141 129 L 141 130 L 136 135 L 136 136 L 133 139 L 133 140 L 130 143 L 130 144 L 128 146 L 128 147 L 127 148 L 127 149 L 125 151 L 125 152 L 124 153 L 124 154 L 123 155 L 123 156 L 122 157 L 122 158 L 121 159 L 121 160 L 120 161 L 120 162 L 119 163 L 119 165 L 118 166 L 118 167 L 117 168 L 117 170 L 116 171 L 116 173 L 115 174 L 115 176 L 114 177 L 114 179 L 113 180 L 113 183 L 112 184 L 112 187 L 111 188 L 111 193 L 113 193 L 114 194 L 197 194 L 199 192 L 199 190 L 201 188 L 201 187 L 202 186 L 202 185 L 204 183 L 204 182 L 212 174 L 213 174 L 215 172 L 216 172 L 218 170 L 219 170 L 220 169 L 222 169 L 223 168 L 224 168 L 225 167 L 228 167 L 229 166 L 231 166 L 231 165 L 232 164 L 232 87 Z" fill="#FFFFFF"/>
</svg>
