<svg xmlns="http://www.w3.org/2000/svg" viewBox="0 0 424 388" width="424" height="388">
  <path d="M 62 0 L 61 1 L 59 1 L 58 2 L 57 2 L 56 3 L 55 3 L 54 4 L 52 4 L 51 5 L 50 5 L 49 6 L 48 6 L 46 8 L 45 8 L 44 9 L 43 9 L 41 11 L 40 11 L 38 13 L 37 13 L 35 15 L 34 15 L 29 20 L 28 20 L 20 28 L 20 29 L 15 34 L 15 35 L 13 37 L 13 38 L 11 40 L 11 41 L 9 43 L 9 44 L 8 45 L 8 46 L 7 47 L 7 48 L 5 50 L 5 51 L 4 52 L 4 54 L 3 55 L 3 56 L 2 57 L 2 58 L 1 59 L 1 61 L 0 62 L 0 325 L 1 326 L 1 328 L 2 329 L 2 330 L 3 331 L 3 332 L 4 333 L 4 335 L 5 336 L 5 337 L 6 338 L 6 339 L 8 341 L 8 342 L 9 343 L 9 344 L 11 346 L 11 347 L 13 349 L 13 350 L 15 352 L 15 353 L 20 358 L 20 359 L 28 367 L 29 367 L 34 372 L 35 372 L 37 374 L 38 374 L 40 376 L 41 376 L 43 378 L 44 378 L 45 379 L 46 379 L 47 380 L 48 380 L 49 381 L 50 381 L 51 382 L 52 382 L 53 383 L 54 383 L 55 384 L 56 384 L 57 385 L 59 385 L 60 386 L 61 386 L 62 387 L 361 387 L 362 386 L 364 386 L 365 385 L 366 385 L 367 384 L 368 384 L 369 383 L 371 383 L 372 382 L 373 382 L 374 381 L 375 381 L 377 379 L 378 379 L 379 378 L 380 378 L 382 376 L 383 376 L 385 374 L 386 374 L 388 372 L 389 372 L 394 367 L 395 367 L 403 359 L 403 358 L 408 353 L 408 352 L 410 350 L 410 349 L 412 347 L 412 346 L 414 344 L 414 343 L 415 342 L 415 341 L 416 340 L 416 339 L 418 337 L 418 336 L 419 335 L 419 333 L 420 332 L 420 331 L 421 330 L 421 329 L 422 328 L 422 326 L 423 325 L 423 62 L 422 61 L 422 59 L 421 58 L 421 57 L 420 56 L 420 55 L 419 54 L 419 52 L 418 51 L 418 50 L 417 49 L 417 48 L 415 46 L 415 45 L 414 44 L 414 43 L 412 41 L 412 40 L 410 38 L 410 37 L 408 35 L 408 34 L 403 29 L 403 28 L 395 20 L 394 20 L 389 15 L 388 15 L 386 13 L 385 13 L 383 11 L 382 11 L 380 9 L 379 9 L 378 8 L 377 8 L 376 7 L 375 7 L 374 6 L 373 6 L 372 5 L 371 5 L 370 4 L 369 4 L 368 3 L 367 3 L 366 2 L 364 2 L 363 1 L 362 1 L 361 0 Z M 83 12 L 84 11 L 339 11 L 340 12 L 344 12 L 345 13 L 349 13 L 350 14 L 352 14 L 353 15 L 355 15 L 356 16 L 358 16 L 359 17 L 360 17 L 361 18 L 362 18 L 363 19 L 365 19 L 367 21 L 368 21 L 369 22 L 370 22 L 371 23 L 372 23 L 374 25 L 375 25 L 378 28 L 379 28 L 383 32 L 384 32 L 391 39 L 391 40 L 395 44 L 395 45 L 398 48 L 398 49 L 400 51 L 400 52 L 401 53 L 401 54 L 402 55 L 402 56 L 404 58 L 404 60 L 405 61 L 405 62 L 406 63 L 406 64 L 407 65 L 407 67 L 408 68 L 408 70 L 409 71 L 409 73 L 410 74 L 410 78 L 411 79 L 411 83 L 412 84 L 412 303 L 411 304 L 411 309 L 410 310 L 410 313 L 409 314 L 409 316 L 408 317 L 408 319 L 407 320 L 407 322 L 406 323 L 406 324 L 405 325 L 405 327 L 404 328 L 404 329 L 403 330 L 403 331 L 401 333 L 401 334 L 400 335 L 400 336 L 398 338 L 398 339 L 396 341 L 396 342 L 391 347 L 391 348 L 384 355 L 383 355 L 379 359 L 378 359 L 375 362 L 374 362 L 372 364 L 371 364 L 370 365 L 369 365 L 368 366 L 367 366 L 366 367 L 365 367 L 364 368 L 363 368 L 362 369 L 361 369 L 360 370 L 359 370 L 358 371 L 356 371 L 355 372 L 353 372 L 352 373 L 350 373 L 349 374 L 345 374 L 344 375 L 340 375 L 339 376 L 84 376 L 83 375 L 79 375 L 78 374 L 74 374 L 73 373 L 71 373 L 70 372 L 68 372 L 67 371 L 65 371 L 64 370 L 63 370 L 62 369 L 61 369 L 60 368 L 58 368 L 56 366 L 55 366 L 54 365 L 53 365 L 52 364 L 51 364 L 49 362 L 48 362 L 45 359 L 44 359 L 40 355 L 39 355 L 32 348 L 32 347 L 28 343 L 28 342 L 25 339 L 25 338 L 23 336 L 23 335 L 22 334 L 22 333 L 21 332 L 21 331 L 19 329 L 19 327 L 18 326 L 18 325 L 17 324 L 17 323 L 16 322 L 16 320 L 15 319 L 15 317 L 14 316 L 14 314 L 13 313 L 13 309 L 12 308 L 12 304 L 11 303 L 11 84 L 12 83 L 12 78 L 13 77 L 13 74 L 14 73 L 14 71 L 15 70 L 15 68 L 16 67 L 16 65 L 17 64 L 17 63 L 18 62 L 18 60 L 19 59 L 19 58 L 20 57 L 20 56 L 22 54 L 22 53 L 23 52 L 23 51 L 25 49 L 25 48 L 27 46 L 27 45 L 32 40 L 32 39 L 39 32 L 40 32 L 44 28 L 45 28 L 48 25 L 49 25 L 51 23 L 52 23 L 53 22 L 54 22 L 55 21 L 56 21 L 57 20 L 58 20 L 59 19 L 60 19 L 61 18 L 62 18 L 63 17 L 64 17 L 65 16 L 67 16 L 68 15 L 70 15 L 71 14 L 73 14 L 74 13 L 78 13 L 79 12 Z" fill="#1E3A2F" fill-rule="evenodd"/>
  <path d="M 259 232 L 258 233 L 257 233 L 251 239 L 250 239 L 248 241 L 247 241 L 245 243 L 244 243 L 243 244 L 242 244 L 241 245 L 239 245 L 238 246 L 236 246 L 235 247 L 233 247 L 231 249 L 231 321 L 237 321 L 238 320 L 243 320 L 244 319 L 247 319 L 248 318 L 251 318 L 252 317 L 254 317 L 255 316 L 257 316 L 258 315 L 260 315 L 261 314 L 262 314 L 263 313 L 265 313 L 266 312 L 267 312 L 268 311 L 269 311 L 270 310 L 271 310 L 272 309 L 273 309 L 274 308 L 275 308 L 277 306 L 278 306 L 279 305 L 280 305 L 282 303 L 283 303 L 286 300 L 287 300 L 290 297 L 291 297 L 303 285 L 303 284 L 307 280 L 307 279 L 309 277 L 309 276 L 310 275 L 310 270 L 307 267 L 306 267 L 299 260 L 298 260 L 293 255 L 292 255 L 288 251 L 287 251 L 283 247 L 282 247 L 279 244 L 278 244 L 275 241 L 274 241 L 271 238 L 270 238 L 267 235 L 266 235 L 264 233 L 263 233 L 262 232 Z M 106 221 L 105 222 L 104 222 L 104 226 L 105 227 L 105 229 L 106 230 L 106 233 L 107 234 L 107 236 L 108 237 L 108 240 L 109 241 L 109 243 L 110 244 L 110 246 L 111 247 L 111 248 L 112 249 L 112 250 L 113 251 L 113 253 L 114 254 L 114 255 L 115 256 L 115 257 L 116 258 L 116 259 L 118 261 L 118 262 L 119 263 L 119 264 L 120 265 L 120 266 L 122 268 L 122 269 L 124 271 L 124 272 L 127 275 L 127 276 L 133 282 L 133 283 L 140 290 L 141 290 L 146 295 L 147 295 L 150 298 L 151 298 L 153 300 L 154 300 L 156 302 L 157 302 L 159 304 L 160 304 L 161 305 L 162 305 L 163 306 L 164 306 L 166 308 L 167 308 L 168 309 L 169 309 L 170 310 L 171 310 L 172 311 L 174 311 L 175 312 L 176 312 L 177 313 L 178 313 L 179 314 L 181 314 L 182 315 L 184 315 L 185 316 L 187 316 L 188 317 L 191 317 L 192 318 L 195 318 L 196 319 L 199 319 L 200 320 L 206 320 L 207 321 L 217 321 L 218 320 L 218 249 L 216 247 L 215 247 L 214 246 L 211 246 L 210 245 L 208 245 L 207 244 L 206 244 L 205 243 L 204 243 L 203 242 L 202 242 L 200 240 L 199 240 L 191 232 L 191 231 L 189 229 L 189 228 L 188 227 L 188 226 L 187 225 L 187 224 L 186 223 L 186 222 L 185 221 Z M 101 194 L 101 208 L 181 208 L 182 207 L 182 195 L 181 194 Z M 232 82 L 232 88 L 231 89 L 231 153 L 233 155 L 236 155 L 237 156 L 239 156 L 240 157 L 241 157 L 242 158 L 243 158 L 244 159 L 245 159 L 246 160 L 247 160 L 249 162 L 250 162 L 257 169 L 259 169 L 260 170 L 261 170 L 262 169 L 263 169 L 264 168 L 265 168 L 266 167 L 267 167 L 269 165 L 270 165 L 274 161 L 275 161 L 278 158 L 279 158 L 283 154 L 284 154 L 287 151 L 288 151 L 292 147 L 293 147 L 298 142 L 299 142 L 310 131 L 310 130 L 311 129 L 310 128 L 310 127 L 309 126 L 309 125 L 307 123 L 307 122 L 304 119 L 304 118 L 293 107 L 292 107 L 288 103 L 287 103 L 284 100 L 283 100 L 281 98 L 280 98 L 279 97 L 278 97 L 276 95 L 275 95 L 274 94 L 273 94 L 272 93 L 271 93 L 270 92 L 269 92 L 268 91 L 267 91 L 266 90 L 265 90 L 264 89 L 262 89 L 261 88 L 259 88 L 258 87 L 256 87 L 255 86 L 253 86 L 252 85 L 249 85 L 248 84 L 245 84 L 244 83 L 240 83 L 239 82 Z M 212 81 L 211 82 L 204 82 L 203 83 L 199 83 L 198 84 L 194 84 L 193 85 L 190 85 L 189 86 L 187 86 L 186 87 L 184 87 L 183 88 L 181 88 L 180 89 L 178 89 L 177 90 L 175 90 L 174 91 L 173 91 L 172 92 L 171 92 L 170 93 L 169 93 L 168 94 L 167 94 L 166 95 L 165 95 L 164 96 L 163 96 L 162 97 L 161 97 L 159 99 L 158 99 L 157 100 L 156 100 L 154 102 L 153 102 L 150 105 L 149 105 L 146 108 L 145 108 L 129 124 L 129 125 L 125 129 L 125 130 L 123 132 L 123 133 L 121 135 L 121 136 L 119 138 L 119 139 L 118 140 L 118 141 L 116 143 L 116 144 L 115 145 L 115 146 L 114 147 L 114 148 L 113 149 L 113 150 L 112 151 L 112 153 L 111 154 L 111 155 L 110 156 L 110 158 L 109 159 L 109 160 L 108 161 L 108 163 L 107 164 L 107 167 L 106 168 L 106 170 L 105 171 L 105 175 L 104 176 L 104 180 L 106 180 L 107 181 L 185 181 L 186 180 L 186 179 L 187 178 L 187 177 L 188 176 L 188 175 L 189 174 L 189 173 L 192 170 L 192 169 L 199 162 L 200 162 L 202 160 L 203 160 L 204 159 L 205 159 L 206 158 L 207 158 L 208 157 L 209 157 L 210 156 L 213 156 L 214 155 L 216 155 L 218 153 L 218 82 L 217 81 Z" fill="#1E3A2F"/>
</svg>
